<svg xmlns="http://www.w3.org/2000/svg" xmlns:v="https://svgstorm.com"
viewBox = "0 0 800 800"
width="800"
height="800">
<g fill="None" fill-opacity="0.0" stroke="#000000" stroke-opacity="0.00" stroke-width="0.3"><path d="
M 0.00 800.00 
L 800.00 800.00
L 800.00 0.00
L 0.00 0.00
L 0.00 800.00
M 427.00 25.00 
C 464.23 28.60 508.22 37.56 542.02 51.98 C 575.83 66.39 604.04 82.26 632.25 104.75 C 660.45 127.24 681.24 148.03 702.75 177.25 C 724.26 206.47 739.15 235.03 752.78 270.22 C 766.41 305.42 773.84 351.02 775.00 391.00 C 776.16 430.98 769.44 480.40 757.07 516.07 C 744.71 551.75 731.06 582.29 710.08 612.08 C 689.10 641.88 670.74 663.09 642.75 686.75 C 614.76 710.42 588.94 726.30 554.98 741.98 C 521.01 757.65 481.97 768.60 443.00 773.00 C 404.03 777.40 348.61 774.73 311.93 765.07 C 275.25 755.41 241.13 743.20 209.92 724.08 C 178.71 704.96 155.21 687.83 129.75 661.25 C 104.29 634.67 87.38 610.87 69.25 578.75 C 51.11 546.64 40.28 511.23 32.00 474.00 C 23.72 436.77 22.76 380.15 28.99 341.99 C 35.22 303.83 46.49 266.47 63.31 233.31 C 80.12 200.14 96.59 175.51 121.25 148.25 C 145.91 120.99 167.92 102.36 198.75 82.75 C 229.57 63.13 260.89 48.83 297.67 38.67 C 334.45 28.51 385.79 21.01 427.00 25.00 Z"/>
</g>
<g fill="None" fill-opacity="0.0" stroke="#40A043" stroke-opacity="1.00" stroke-width="0.3"><path d="
M 427.00 25.00 
C 385.79 21.01 334.45 28.51 297.67 38.67 C 260.89 48.83 229.57 63.13 198.75 82.75 C 167.92 102.36 145.91 120.99 121.25 148.25 C 96.59 175.51 80.12 200.14 63.31 233.31 C 46.49 266.47 35.22 303.83 28.99 341.99 C 22.76 380.15 23.72 436.77 32.00 474.00 C 40.28 511.23 51.11 546.64 69.25 578.75 C 87.38 610.87 104.29 634.67 129.75 661.25 C 155.21 687.83 178.71 704.96 209.92 724.08 C 241.13 743.20 275.25 755.41 311.93 765.07 C 348.61 774.73 404.03 777.40 443.00 773.00 C 481.97 768.60 521.01 757.65 554.98 741.98 C 588.94 726.30 614.76 710.42 642.75 686.75 C 670.74 663.09 689.10 641.88 710.08 612.08 C 731.06 582.29 744.71 551.75 757.07 516.07 C 769.44 480.40 776.16 430.98 775.00 391.00 C 773.84 351.02 766.41 305.42 752.78 270.22 C 739.15 235.03 724.26 206.47 702.75 177.25 C 681.24 148.03 660.45 127.24 632.25 104.75 C 604.04 82.26 575.83 66.39 542.02 51.98 C 508.22 37.56 464.23 28.60 427.00 25.00
M 576.00 176.00 
C 603.23 206.05 632.68 235.02 661.00 264.00
C 547.06 385.07 428.50 503.73 313.00 624.00
C 254.27 565.48 197.39 504.66 139.00 446.00
C 165.05 415.12 197.07 387.50 224.00 357.00
C 254.89 384.36 282.87 416.44 312.00 446.00
C 400.97 356.96 486.88 264.87 576.00 176.00 Z"/>
</g>
<g fill="None" fill-opacity="0.0" stroke="#000000" stroke-opacity="0.00" stroke-width="0.3"><path d="
M 576.00 176.00 
C 486.88 264.87 400.97 356.96 312.00 446.00
C 282.87 416.44 254.89 384.36 224.00 357.00
C 197.07 387.50 165.05 415.12 139.00 446.00
C 197.39 504.66 254.27 565.48 313.00 624.00
C 428.50 503.73 547.06 385.07 661.00 264.00
C 632.68 235.02 603.23 206.05 576.00 176.00 Z"/>
</g>
<g fill="#000000" fill-opacity="0.00" stroke="None">
<path d="
M 0.00 800.00 
L 800.00 800.00
L 800.00 0.00
L 0.00 0.00
L 0.00 800.00
M 427.00 25.00 
C 464.23 28.60 508.22 37.56 542.02 51.98 C 575.83 66.39 604.04 82.26 632.25 104.75 C 660.45 127.24 681.24 148.03 702.75 177.25 C 724.26 206.47 739.15 235.03 752.78 270.22 C 766.41 305.42 773.84 351.02 775.00 391.00 C 776.16 430.98 769.44 480.40 757.07 516.07 C 744.71 551.75 731.06 582.29 710.08 612.08 C 689.10 641.88 670.74 663.09 642.75 686.75 C 614.76 710.42 588.94 726.30 554.98 741.98 C 521.01 757.65 481.97 768.60 443.00 773.00 C 404.03 777.40 348.61 774.73 311.93 765.07 C 275.25 755.41 241.13 743.20 209.92 724.08 C 178.71 704.96 155.21 687.83 129.75 661.25 C 104.29 634.67 87.38 610.87 69.25 578.75 C 51.11 546.64 40.28 511.23 32.00 474.00 C 23.72 436.77 22.76 380.15 28.99 341.99 C 35.22 303.83 46.49 266.47 63.31 233.31 C 80.12 200.14 96.59 175.51 121.25 148.25 C 145.91 120.99 167.92 102.36 198.75 82.75 C 229.57 63.13 260.89 48.83 297.67 38.67 C 334.45 28.51 385.79 21.01 427.00 25.00 Z"/>
</g>
<g fill="#40A043" fill-opacity="1.00" stroke="None">
<path d="
M 427.00 25.00 
C 385.79 21.01 334.45 28.51 297.67 38.67 C 260.89 48.83 229.57 63.13 198.75 82.75 C 167.92 102.36 145.91 120.99 121.25 148.25 C 96.59 175.51 80.12 200.14 63.31 233.31 C 46.49 266.47 35.22 303.83 28.99 341.99 C 22.76 380.15 23.72 436.77 32.00 474.00 C 40.28 511.23 51.11 546.64 69.25 578.75 C 87.38 610.87 104.29 634.67 129.75 661.25 C 155.21 687.83 178.71 704.96 209.92 724.08 C 241.13 743.20 275.25 755.41 311.93 765.07 C 348.61 774.73 404.03 777.40 443.00 773.00 C 481.97 768.60 521.01 757.65 554.98 741.98 C 588.94 726.30 614.76 710.42 642.75 686.75 C 670.74 663.09 689.10 641.88 710.08 612.08 C 731.06 582.29 744.71 551.75 757.07 516.07 C 769.44 480.40 776.16 430.98 775.00 391.00 C 773.84 351.02 766.41 305.42 752.78 270.22 C 739.15 235.03 724.26 206.47 702.75 177.25 C 681.24 148.03 660.45 127.24 632.25 104.75 C 604.04 82.26 575.83 66.39 542.02 51.98 C 508.22 37.56 464.23 28.60 427.00 25.00
M 576.00 176.00 
C 603.23 206.05 632.68 235.02 661.00 264.00
C 547.06 385.07 428.50 503.73 313.00 624.00
C 254.27 565.48 197.39 504.66 139.00 446.00
C 165.05 415.12 197.07 387.50 224.00 357.00
C 254.89 384.36 282.87 416.44 312.00 446.00
C 400.97 356.96 486.88 264.87 576.00 176.00 Z"/>
</g>
<g fill="#000000" fill-opacity="0.00" stroke="None">
<path d="
M 576.00 176.00 
C 486.88 264.87 400.97 356.96 312.00 446.00
C 282.87 416.44 254.89 384.36 224.00 357.00
C 197.07 387.50 165.05 415.12 139.00 446.00
C 197.39 504.66 254.27 565.48 313.00 624.00
C 428.50 503.73 547.06 385.07 661.00 264.00
C 632.68 235.02 603.23 206.05 576.00 176.00 Z"/>
</g>
</svg>